<svg width="302" height="92" viewBox="0 0 302 92" fill="none" xmlns="http://www.w3.org/2000/svg">
<path fill-rule="evenodd" clip-rule="evenodd" d="M7.39337 18.3526C8.13358 18.3526 8.81758 18.2162 9.46596 17.9597C9.4715 17.9725 10.7912 20.0491 10.8102 20.0635C9.61558 20.7138 8.36713 21 7.00229 21C2.945 21 0 18.2924 0 13.9701C0 9.61645 3.09542 6.90886 7.00229 6.90886C8.39325 6.90886 9.48971 7.21434 10.5941 7.81246C10.4722 8.01772 9.33533 9.97243 9.33138 9.98045C8.67636 9.7165 7.97719 9.5831 7.27225 9.58758C4.86796 9.58758 3.00517 11.1398 3.00517 13.9701C3.00517 16.648 4.80779 18.3526 7.39337 18.3526ZM17.6265 6.90886C21.6236 6.90886 24.5084 9.77039 24.5084 13.9701C24.5084 18.1393 21.6236 21 17.6265 21C13.6602 21 10.7754 18.1401 10.7754 13.9701C10.7754 9.77039 13.6602 6.90886 17.6265 6.90886ZM17.6265 9.49618C15.4035 9.49618 13.7798 11.2312 13.7798 13.9701C13.7798 16.6793 15.4027 18.4135 17.6273 18.4135C19.9112 18.4135 21.504 16.6793 21.504 13.9701C21.504 11.2312 19.9112 9.49618 17.6265 9.49618ZM26.4021 20.6961V7.21274H29.3764V20.6961H26.4021ZM26.011 3.07319C26.011 2.03891 26.8834 1.21789 27.8746 1.21789C28.8665 1.21789 29.7374 2.03891 29.7374 3.07399C29.7374 4.13955 28.8665 4.99183 27.8746 4.99183C26.8834 4.99183 26.011 4.13955 26.011 3.07399V3.07319ZM31.9723 8.06582C33.835 7.33541 36.1206 6.90886 38.0728 6.90886C41.4691 6.90886 43.6327 8.21736 43.6327 12.0218V20.6961H40.6877V12.296C40.6877 10.3485 39.486 9.64772 37.8322 9.64772C36.78 9.64772 35.7295 9.80005 34.9473 10.0438V20.6961H31.9723V8.06582ZM46.1241 0H49.0984V7.57915C49.7293 7.24401 50.9612 6.90886 52.1328 6.90886C55.9803 6.90886 58.8644 9.40398 58.8644 13.7263C58.8644 18.0783 56.0104 21 51.0823 21C49.3919 20.995 47.7149 20.6967 46.1241 20.118V0ZM49.0984 18.1401C49.6692 18.3221 50.4205 18.4127 51.1718 18.4127C53.9062 18.4127 55.86 16.8917 55.86 13.7865C55.86 11.1695 54.0273 9.61725 51.7734 9.61725C50.6018 9.61725 49.6993 9.92192 49.0976 10.2571L49.0984 18.1401ZM67.4587 11.6562C67.4587 10.1953 66.3765 9.52665 64.904 9.52665C63.3713 9.52665 62.1696 9.98286 61.0581 10.6219V8.00408C62.2298 7.33541 63.7315 6.90886 65.3853 6.90886C68.2995 6.90886 70.3728 8.12595 70.3728 11.5038V20.4219C69.1109 20.7563 67.3091 20.9703 65.8065 20.9703C62.3501 20.9703 59.8255 19.9048 59.8255 16.8613C59.8255 14.1224 62.1387 12.7834 65.9854 12.7834H67.4579L67.4587 11.6562ZM67.4587 14.7911H66.1968C64.1226 14.7911 62.7705 15.4004 62.7705 16.7699C62.7705 18.1697 64.0332 18.7174 65.8358 18.7174C66.287 18.7174 66.918 18.6564 67.4587 18.565V14.7911ZM72.5365 17.0441C73.7691 17.9869 75.2408 18.565 76.593 18.565C77.9158 18.565 78.7875 18.1088 78.7875 17.0441C78.7875 15.9472 78.0061 15.552 76.2937 15.0958C73.5284 14.4567 72.356 13.3311 72.356 10.9875C72.356 8.24782 74.4 6.90886 77.1044 6.90886C78.607 6.90886 79.8087 7.24401 80.9202 7.94315V10.7133C79.7485 9.86179 78.607 9.34385 77.1946 9.34385C75.9026 9.34385 75.2115 9.98286 75.2115 10.8656C75.2115 11.7476 75.7815 12.2046 77.315 12.6295C80.351 13.2998 81.6723 14.4575 81.6723 16.8917C81.6723 19.722 79.5387 21 76.6539 21C75.0912 21 73.5284 20.5751 72.5373 19.9048L72.5365 17.0441ZM85.7446 14.6395V14.7005C85.9251 17.1042 87.9676 18.4127 90.041 18.4127C91.8745 18.4127 93.1974 17.9869 94.5187 17.1042V19.7532C93.3169 20.6047 91.5436 21 89.832 21C85.6845 21 82.8598 18.3221 82.8598 14.0615C82.8598 9.77039 85.6235 6.90967 89.2905 6.90967C93.1665 6.90967 95 9.43525 95 13.117V14.6403L85.7446 14.6395ZM92.2046 12.6912C92.1453 10.5906 91.124 9.43525 89.2003 9.43525C87.4871 9.43525 86.2252 10.6531 85.8349 12.692L92.2046 12.6912Z" fill="#896E6E"/>
<path fill-rule="evenodd" clip-rule="evenodd" d="M186.515 18.125C187.433 18.125 188.274 17.725 188.86 17.125C188.988 16.975 189.268 16.7 189.243 16.75L191.206 18.825C190.084 20.15 188.401 21 186.489 21C183.099 21 180.371 18.325 180.371 15C180.371 11.675 183.099 9 186.489 9C188.299 9 189.931 9.775 191.053 11L189.09 13.075L188.631 12.625C188.07 12.125 187.331 11.825 186.515 11.825C184.756 11.825 183.303 13.225 183.303 14.975C183.303 16.7 184.73 18.125 186.515 18.125ZM262.026 20.8C262.944 20.8 263.581 20.175 263.581 19.275C263.581 18.4 262.944 17.8 262.026 17.775C261.134 17.775 260.497 18.4 260.497 19.275C260.497 20.175 261.134 20.8 262.026 20.8ZM212.085 17.175C211.498 17.775 210.657 18.175 209.739 18.175C207.955 18.175 206.527 16.75 206.527 15.025C206.527 13.275 207.98 11.875 209.739 11.875C210.555 11.875 211.294 12.175 211.855 12.675L212.314 13.125L214.303 11C213.181 9.775 211.549 9 209.739 9C206.349 9 203.621 11.675 203.621 15C203.621 18.325 206.349 21 209.739 21C211.651 21 213.334 20.15 214.456 18.825L212.493 16.75C212.493 16.75 212.212 17.025 212.085 17.175ZM270.618 18.125C271.535 18.125 272.377 17.725 272.963 17.125C273.09 16.975 273.371 16.7 273.345 16.75L275.308 18.825C274.187 20.15 272.504 21 270.592 21C267.201 21 264.474 18.325 264.474 15C264.474 11.675 267.201 9 270.592 9C272.402 9 274.034 9.775 275.155 11L273.192 13.075L272.734 12.625C272.173 12.125 271.433 11.825 270.618 11.825C268.859 11.825 267.405 13.225 267.405 14.975C267.405 16.7 268.833 18.125 270.618 18.125ZM155.26 14.75C156.305 14.3 157.07 13.525 157.07 12.175V12.15C157.07 11.35 156.789 10.75 156.305 10.3C155.617 9.6 154.597 9.25 153.118 9.25H147V20.75H153.144C155.948 20.75 157.58 19.55 157.58 17.575V17.55C157.58 15.975 156.688 15.2 155.26 14.75ZM150.263 11.8H152.379C153.348 11.8 153.858 12.15 153.858 12.775V12.8C153.858 13.475 153.297 13.8 152.303 13.8H150.263V11.8ZM154.342 17.15C154.342 17.825 153.781 18.2 152.787 18.2H150.263V16.075H152.736C153.832 16.075 154.317 16.475 154.317 17.1V17.15H154.342ZM158.6 9.25H161.863V17.975H167.14V20.75H158.6V9.25ZM223.429 13.55H219.248V9.25H215.985V20.775L219.248 20.75V16.375H223.429V20.75H226.692V9.25H223.429V13.55ZM233.091 9.25H236.201L241.173 20.75H237.706L236.864 18.7H232.377L231.536 20.75H228.146L233.091 9.25ZM234.595 13L233.295 16.25H235.896L234.595 13ZM245.889 9.25H242.626V20.775H245.889V9.25ZM255.322 15.35V9.275H258.585V20.775H255.704L250.682 14.45V20.775H247.419V9.25L250.478 9.275L255.322 15.35ZM203.672 9.25H199.822L195.769 13.925V9.25H192.506V20.775H195.769V17.8L196.967 16.5L200.256 20.775H204.131L199.083 14.2L203.672 9.25ZM167.395 15C167.395 11.675 170.123 9 173.513 9C176.878 9 179.632 11.675 179.632 15C179.632 18.325 176.904 21 173.513 21C170.123 21 167.395 18.325 167.395 15ZM170.301 15C170.301 16.725 171.729 18.15 173.513 18.15C175.298 18.15 176.725 16.75 176.725 15C176.725 13.275 175.298 11.85 173.513 11.85C171.754 11.85 170.301 13.25 170.301 15ZM281.707 9C278.317 9 275.589 11.675 275.589 15C275.589 18.325 278.317 21 281.707 21C285.098 21 287.826 18.325 287.826 15C287.826 11.675 285.098 9 281.707 9ZM281.707 18.15C279.923 18.15 278.495 16.725 278.495 15C278.495 13.25 279.948 11.85 281.707 11.85C283.492 11.85 284.919 13.275 284.919 15C284.945 16.75 283.492 18.15 281.707 18.15ZM298.941 13.925L296.595 19.575H294.326L291.981 13.925V20.725H288.922V9.25H292.644L295.474 15.6L298.303 9.25H302V20.725H298.941V13.925Z" fill="#896E6E"/>
<g clip-path="url(#clip0_7_672)">
<path d="M7.34007 77.5047L12.0014 72.6512L16.6646 77.5086L19.3753 74.683L12.0014 67L4.62744 74.6811L7.34007 77.5047Z" fill="#896E6E"/>
<path d="M-0.000976562 79.5L2.71066 76.6754L5.42229 79.5L2.71066 82.3246L-0.000976562 79.5Z" fill="#896E6E"/>
<path d="M7.33995 81.4951L12.0013 86.3506L16.6645 81.4932L19.3771 84.3148L19.3752 84.3168L12.0013 91.9998L4.62733 84.3207L4.62354 84.3168L7.33995 81.4951Z" fill="#896E6E"/>
<path d="M18.5752 79.501L21.2868 76.6764L23.9985 79.501L21.2868 82.3256L18.5752 79.501Z" fill="#896E6E"/>
<path d="M14.7519 79.4989L12.0014 76.6318L9.9674 78.7505L9.73235 78.9934L9.25086 79.495L9.24707 79.4989L9.25086 79.5048L12.0014 82.368L14.7519 79.5009L14.7538 79.4989H14.7519Z" fill="#896E6E"/>
<path d="M28.2295 73.0576H34.1286C35.5921 73.0576 36.6991 73.4525 37.4498 74.2424C37.7326 74.5341 37.9555 74.8827 38.1051 75.2669C38.2547 75.6511 38.3277 76.063 38.3199 76.4776V76.5151C38.3249 76.8547 38.2795 77.193 38.1853 77.5182C38.1013 77.7981 37.9794 78.064 37.8232 78.308C37.6776 78.5381 37.5015 78.7455 37.3 78.9241C37.1032 79.1005 36.8876 79.2529 36.6574 79.3782C37.3212 79.619 37.918 80.0258 38.3957 80.5629C38.8178 81.0632 39.0288 81.7543 39.0288 82.6362V82.6738C39.0408 83.2246 38.9257 83.7704 38.6933 84.2653C38.468 84.7213 38.1378 85.112 37.7322 85.4026C37.2736 85.7229 36.763 85.9537 36.2252 86.0838C35.5863 86.2417 34.9312 86.3179 34.2746 86.3109H28.2295V73.0576ZM33.5372 78.4166C34.0476 78.4423 34.5555 78.3279 35.0101 78.0849C35.1874 77.977 35.3321 77.8196 35.428 77.6304C35.5238 77.4413 35.5668 77.228 35.5523 77.0147V76.9771C35.5616 76.7806 35.5233 76.5847 35.4408 76.4077C35.3583 76.2306 35.2343 76.0781 35.0802 75.9642C34.7656 75.7312 34.3113 75.6147 33.7173 75.6147H30.9573V78.4166H33.5372ZM34.2822 83.7578C34.7907 83.7875 35.2968 83.6663 35.7418 83.4083C35.9152 83.2923 36.0555 83.13 36.1482 82.9383C36.2409 82.7466 36.2825 82.5325 36.2688 82.3183V82.2808C36.2756 82.0773 36.2344 81.8751 36.1488 81.6919C36.0633 81.5088 35.9359 81.3503 35.7778 81.2304C35.4518 80.9671 34.9248 80.8354 34.1969 80.8354H30.9573V83.7578H34.2822Z" fill="#896E6E"/>
<path d="M42.5435 73.0576H45.3433V86.3149H42.5435V73.0576Z" fill="#896E6E"/>
<path d="M49.5801 73.0576H52.1619L58.1293 81.2165V73.0576H60.8931V86.3149H58.5103L52.3477 77.8874V86.3149H49.5801V73.0576Z" fill="#896E6E"/>
<path d="M69.3701 72.963H71.9482L77.4018 86.315H74.4788L73.3149 83.3413H67.9333L66.7693 86.315H63.9146L69.3701 72.963ZM72.3159 80.7664L70.6212 76.4658L68.9341 80.7664H72.3159Z" fill="#896E6E"/>
<path d="M80.4292 73.0576H83.011L88.9746 81.2165V73.0576H91.7384V86.3149H89.3556L83.193 77.8874V86.3149H80.4292V73.0576Z" fill="#896E6E"/>
<path d="M101.815 86.548C100.923 86.5559 100.038 86.3759 99.2146 86.0188C98.439 85.6852 97.7353 85.1933 97.1451 84.572C96.5549 83.9507 96.09 83.2127 95.7778 82.4014C95.4485 81.5527 95.2817 80.6451 95.2869 79.7298V79.6923C95.2722 77.8879 95.9387 76.1499 97.1427 74.8526C97.7351 74.2189 98.4443 73.7165 99.2278 73.3756C100.08 73.0079 100.995 72.8245 101.918 72.8366C102.463 72.8323 103.008 72.8832 103.544 72.9886C104.003 73.079 104.451 73.2186 104.882 73.4052C105.274 73.5768 105.646 73.7926 105.991 74.0489C106.329 74.2989 106.646 74.5776 106.939 74.8822L105.159 77.0226C104.704 76.5855 104.194 76.2155 103.643 75.9228C103.101 75.653 102.507 75.5178 101.906 75.5279C101.407 75.5223 100.912 75.6276 100.454 75.8366C99.9966 76.0456 99.587 76.3537 99.2525 76.7403C98.9208 77.1259 98.6611 77.5725 98.4867 78.0573C98.304 78.5696 98.2122 79.1122 98.2156 79.6587V79.6962C98.2138 80.2419 98.3056 80.7835 98.4867 81.2956C98.6589 81.7821 98.916 82.2313 99.2449 82.6205C99.5767 83.0119 99.9854 83.3245 100.443 83.5371C100.901 83.7497 101.397 83.8573 101.899 83.8527C102.537 83.8736 103.171 83.7305 103.743 83.436C104.288 83.1265 104.792 82.7442 105.243 82.2987L107.025 84.1745C106.71 84.5302 106.37 84.8603 106.007 85.1618C105.65 85.4555 105.263 85.7066 104.852 85.9102C104.415 86.1247 103.954 86.2831 103.48 86.3821C102.932 86.4965 102.374 86.5521 101.815 86.548Z" fill="#896E6E"/>
<path d="M110.329 73.0576H119.907V75.6522H113.083V78.3416H119.092V80.9361H113.092V83.7203H120.002V86.3149H110.334L110.329 73.0576Z" fill="#896E6E"/>
</g>
<g clip-path="url(#clip1_7_672)">
<path d="M192.371 70.3369H202.67C202.664 70.4739 202.616 70.6058 202.535 70.7155C202.186 71.3166 201.872 71.9423 201.53 72.5434C201.045 73.4066 200.592 74.2855 200.099 75.1452C199.787 75.7638 199.435 76.3632 199.102 76.9714C197.101 76.9714 195.1 76.9714 193.099 76.9714C192.994 76.9714 192.891 76.9766 192.786 76.9827C192.699 77.2141 192.554 77.4165 192.437 77.6338C192.285 77.8827 192.161 78.1482 192.01 78.3971C191.851 78.7318 191.63 79.0315 191.47 79.3654C191.139 79.9306 190.829 80.5046 190.505 81.0759C190.167 81.6601 189.836 82.2525 189.513 82.853C189.377 83.0659 189.251 83.2855 189.136 83.5111C188.459 84.6959 187.803 85.8912 187.125 87.075C187.068 87.2023 186.992 87.3204 186.9 87.4256C185.741 87.4177 184.582 87.4256 183.423 87.4256C183.28 87.4283 183.138 87.4483 183 87.4851C183 87.1627 183.214 86.9042 183.359 86.6334C183.533 86.2697 183.766 85.9324 183.941 85.5678C185.331 83.0686 186.705 80.5607 188.09 78.0597C188.404 77.5164 188.673 76.9617 188.989 76.4289C189.383 75.7279 189.749 75.0111 190.16 74.3179C190.291 74.0279 190.467 73.7624 190.611 73.4793C191.121 72.5653 191.623 71.6461 192.132 70.7321C192.192 70.5894 192.273 70.4563 192.371 70.3369Z" fill="#896E6E"/>
<path d="M204.305 74.0171C204.991 72.8122 205.653 71.5942 206.349 70.3945H210.069C210.123 70.3973 210.177 70.4058 210.229 70.4199C210.105 70.6083 210.002 70.8081 209.893 71.0044C208.996 72.6232 208.101 74.2429 207.209 75.8635C206.834 76.5233 206.486 77.1981 206.106 77.8544L206.068 77.8676L206.061 77.95C204.312 81.1046 202.569 84.2616 200.832 87.421C197.417 87.4245 194.002 87.4245 190.586 87.421C190.781 87.0126 191.011 86.6227 191.227 86.2257C192.2 84.4275 193.198 82.6452 194.156 80.847C196.255 80.8435 198.353 80.8435 200.451 80.847C201.747 78.5774 203.015 76.2903 204.302 74.0171H204.305Z" fill="#896E6E"/>
<path d="M242.695 70.3477V87.6282H245.673V75.4766L251.106 83.4798L256.495 75.2865V87.6282H259.56V70.3477H256.263L251.128 78.3246L245.935 70.3477H242.695Z" fill="#896E6E"/>
<path d="M228.765 74.8047H230.711V87.7739H228.765V74.8047Z" fill="#896E6E"/>
<path d="M228.598 69.9999H230.878V72.1758H228.598V69.9999Z" fill="#896E6E"/>
<path d="M234.43 71.0879H236.464V74.8043H240.473V76.6156H236.464V84.32C236.46 84.6168 236.529 84.9101 236.663 85.1744C237.007 85.8316 237.943 86.6115 240.473 85.7001V87.3791C240.473 87.3791 238.163 88.6936 236.071 87.4965C236.071 87.4965 235.032 87.0531 234.596 85.5564C234.482 85.1555 234.427 84.7403 234.43 84.3235V76.5866L232.716 76.6156V74.8043H234.444L234.43 71.0879Z" fill="#896E6E"/>
<path d="M262.698 70.3477V87.7448H275.626V84.9406H265.851V80.3252H274.465V77.5648H265.836V73.1693H275.525V70.3477H262.698Z" fill="#896E6E"/>
<path d="M276.84 70.3477H280.522L284.749 76.4554L288.943 70.3477H292.626L286.612 78.832L293 87.7299H289.122L284.764 81.2313L280.195 87.7448H276.513L282.81 78.9091L276.84 70.3477Z" fill="#896E6E"/>
<path d="M222.809 78.7192C222.809 78.7192 225.656 77.6387 225.482 74.5278C225.482 74.5278 225.458 71.5362 222.108 70.6125C221.551 70.4625 220.977 70.3882 220.4 70.3917H212.365L212.387 87.6723H221.037C221.037 87.6723 226.099 87.5627 226.456 83.0279C226.456 83.0279 226.818 79.8583 222.809 78.7192ZM214.442 72.1759H219.57C223.593 72.1618 223.477 75.0098 223.477 75.0098C223.537 78.2591 219.845 78.1934 219.845 78.1934H214.442V72.1759ZM220.717 85.8461H214.442V79.8294H220.442C224.465 79.8145 224.349 82.6625 224.349 82.6625C224.409 85.9118 220.717 85.8461 220.717 85.8461Z" fill="#896E6E"/>
</g>
<defs>
<clipPath id="clip0_7_672">
<rect width="120" height="25" fill="white" transform="translate(0 67)"/>
</clipPath>
<clipPath id="clip1_7_672">
<rect width="110" height="18" fill="white" transform="translate(183 70)"/>
</clipPath>
</defs>
</svg>
