<svg width="1236" height="41" viewBox="0 0 1236 41" fill="none" xmlns="http://www.w3.org/2000/svg">
<path fill-rule="evenodd" clip-rule="evenodd" d="M11.5959 32.8397C12.7569 32.8397 13.8297 32.6255 14.8466 32.2224C14.8553 32.2425 16.9252 35.5057 16.955 35.5284C15.0813 36.5502 13.1232 37 10.9825 37C4.619 37 0 32.7452 0 25.953C0 19.1116 4.85492 14.8568 10.9825 14.8568C13.1642 14.8568 14.8839 15.3368 16.616 16.2767C16.4248 16.5993 14.6417 19.671 14.6355 19.6836C13.6082 19.2688 12.5116 19.0592 11.4059 19.0662C7.63501 19.0662 4.71337 21.5054 4.71337 25.953C4.71337 30.1611 7.54064 32.8397 11.5959 32.8397ZM27.6457 14.8568C33.9149 14.8568 38.4395 19.3535 38.4395 25.953C38.4395 32.5046 33.9149 37 27.6457 37C21.425 37 16.9003 32.5058 16.9003 25.953C16.9003 19.3535 21.425 14.8568 27.6457 14.8568ZM27.6457 18.9226C24.1591 18.9226 21.6124 21.6491 21.6124 25.953C21.6124 30.2103 24.1579 32.9355 27.647 32.9355C31.2292 32.9355 33.7274 30.2103 33.7274 25.953C33.7274 21.6491 31.2292 18.9226 27.6457 18.9226ZM41.4096 36.5225V15.3343H46.0745V36.5225H41.4096ZM40.7962 8.8293C40.7962 7.20399 42.1645 5.91383 43.7191 5.91383C45.2749 5.91383 46.6407 7.20399 46.6407 8.83056C46.6407 10.505 45.2749 11.8443 43.7191 11.8443C42.1645 11.8443 40.7962 10.505 40.7962 8.83056V8.8293ZM50.146 16.6749C53.0676 15.5271 56.6523 14.8568 59.7142 14.8568C65.041 14.8568 68.4345 16.913 68.4345 22.8913V36.5225H63.8155V23.3222C63.8155 20.2619 61.9306 19.1607 59.3368 19.1607C57.6866 19.1607 56.0389 19.4001 54.8121 19.7831V36.5225H50.146V16.6749ZM72.342 4H77.0069V15.9101C77.9965 15.3834 79.9286 14.8568 81.7662 14.8568C87.8007 14.8568 92.3241 18.7777 92.3241 25.5699C92.3241 32.4088 87.8479 37 80.1185 37C77.4674 36.9922 74.8371 36.5234 72.342 35.6141V4ZM77.0069 32.5058C77.9022 32.7918 79.0805 32.9342 80.2589 32.9342C84.5476 32.9342 87.612 30.5441 87.612 25.6644C87.612 21.552 84.7375 19.1128 81.2025 19.1128C79.3649 19.1128 77.9494 19.5916 77.0057 20.1182L77.0069 32.5058ZM105.804 22.3168C105.804 20.0212 104.106 18.9704 101.797 18.9704C99.3929 18.9704 97.5081 19.6873 95.7648 20.6915V16.5778C97.6024 15.5271 99.9579 14.8568 102.552 14.8568C107.122 14.8568 110.374 16.7694 110.374 22.0774V36.0916C108.395 36.617 105.569 36.9534 103.212 36.9534C97.7912 36.9534 93.8315 35.2789 93.8315 30.4963C93.8315 26.1924 97.4597 24.0883 103.493 24.0883H105.802L105.804 22.3168ZM105.804 27.2431H103.824C100.571 27.2431 98.4505 28.2007 98.4505 30.3526C98.4505 32.5525 100.431 33.413 103.258 33.413C103.966 33.413 104.956 33.3172 105.804 33.1736V27.2431ZM113.768 30.7835C115.701 32.2652 118.009 33.1736 120.13 33.1736C122.205 33.1736 123.572 32.4567 123.572 30.7835C123.572 29.0599 122.346 28.4388 119.661 27.7219C115.324 26.7177 113.485 24.9488 113.485 21.266C113.485 16.9609 116.691 14.8568 120.932 14.8568C123.289 14.8568 125.174 15.3834 126.917 16.4821V20.8351C125.079 19.4971 123.289 18.6832 121.074 18.6832C119.047 18.6832 117.963 19.6873 117.963 21.0745C117.963 22.4604 118.857 23.1786 121.262 23.8464C126.024 24.8997 128.097 26.719 128.097 30.5441C128.097 34.9917 124.75 37 120.226 37C117.775 37 115.324 36.3322 113.769 35.2789L113.768 30.7835ZM134.484 27.005V27.1008C134.767 30.878 137.97 32.9342 141.222 32.9342C144.098 32.9342 146.173 32.2652 148.245 30.878V35.0408C146.36 36.3789 143.579 37 140.894 37C134.389 37 129.959 32.7918 129.959 26.0966C129.959 19.3535 134.294 14.858 140.045 14.858C146.124 14.858 149 18.8268 149 24.6124V27.0063L134.484 27.005ZM144.616 23.9434C144.523 20.6424 142.921 18.8268 139.904 18.8268C137.217 18.8268 135.237 20.7406 134.625 23.9446L144.616 23.9434Z" fill="#896E6E"/>
<path fill-rule="evenodd" clip-rule="evenodd" d="M359.775 26.25C361.604 26.25 363.281 25.45 364.45 24.25C364.704 23.95 365.263 23.4 365.213 23.5L369.126 27.65C366.89 30.3 363.536 32 359.724 32C352.964 32 347.526 26.65 347.526 20C347.526 13.35 352.964 8 359.724 8C363.332 8 366.585 9.55 368.821 12L364.908 16.15L363.993 15.25C362.875 14.25 361.401 13.65 359.775 13.65C356.268 13.65 353.371 16.45 353.371 19.95C353.371 23.4 356.217 26.25 359.775 26.25ZM510.311 31.6C512.14 31.6 513.411 30.35 513.411 28.55C513.411 26.8 512.14 25.6 510.311 25.55C508.532 25.55 507.261 26.8 507.261 28.55C507.261 30.35 508.532 31.6 510.311 31.6ZM410.75 24.35C409.581 25.55 407.903 26.35 406.074 26.35C402.516 26.35 399.67 23.5 399.67 20.05C399.67 16.55 402.567 13.75 406.074 13.75C407.7 13.75 409.174 14.35 410.292 15.35L411.207 16.25L415.171 12C412.935 9.55 409.682 8 406.074 8C399.314 8 393.876 13.35 393.876 20C393.876 26.65 399.314 32 406.074 32C409.886 32 413.24 30.3 415.476 27.65L411.563 23.5C411.563 23.5 411.004 24.05 410.75 24.35ZM527.438 26.25C529.267 26.25 530.944 25.45 532.113 24.25C532.367 23.95 532.926 23.4 532.876 23.5L536.789 27.65C534.553 30.3 531.199 32 527.387 32C520.627 32 515.189 26.65 515.189 20C515.189 13.35 520.627 8 527.387 8C530.995 8 534.248 9.55 536.484 12L532.571 16.15L531.656 15.25C530.538 14.25 529.064 13.65 527.438 13.65C523.931 13.65 521.034 16.45 521.034 19.95C521.034 23.4 523.88 26.25 527.438 26.25ZM297.466 19.5C299.55 18.6 301.075 17.05 301.075 14.35V14.3C301.075 12.7 300.516 11.5 299.55 10.6C298.178 9.2 296.145 8.5 293.197 8.5H281V31.5H293.248C298.839 31.5 302.091 29.1 302.091 25.15V25.1C302.091 21.95 300.313 20.4 297.466 19.5ZM287.505 13.6H291.724C293.655 13.6 294.671 14.3 294.671 15.55V15.6C294.671 16.95 293.553 17.6 291.571 17.6H287.505V13.6ZM295.637 24.3C295.637 25.65 294.519 26.4 292.537 26.4H287.505V22.15H292.435C294.62 22.15 295.586 22.95 295.586 24.2V24.3H295.637ZM304.124 8.5H310.629V25.95H321.15V31.5H304.124V8.5ZM433.365 17.1H425.031V8.5H418.525V31.55L425.031 31.5V22.75H433.365V31.5H439.871V8.5H433.365V17.1ZM452.627 8.5H458.827L468.738 31.5H461.826L460.149 27.4H451.204L449.527 31.5H442.768L452.627 8.5ZM455.626 16L453.034 22.5H458.218L455.626 16ZM478.14 8.5H471.635V31.55H478.14V8.5ZM496.944 20.7V8.55H503.45V31.55H497.707L487.695 18.9V31.55H481.189V8.5L487.288 8.55L496.944 20.7ZM393.978 8.5H386.304L378.223 17.85V8.5H371.718V31.55H378.223V25.6L380.612 23L387.168 31.55H394.893L384.83 18.4L393.978 8.5ZM321.658 20C321.658 13.35 327.096 8 333.855 8C340.564 8 346.053 13.35 346.053 20C346.053 26.65 340.615 32 333.855 32C327.096 32 321.658 26.65 321.658 20ZM327.452 20C327.452 23.45 330.298 26.3 333.855 26.3C337.413 26.3 340.259 23.5 340.259 20C340.259 16.55 337.413 13.7 333.855 13.7C330.349 13.7 327.452 16.5 327.452 20ZM549.545 8C542.786 8 537.348 13.35 537.348 20C537.348 26.65 542.786 32 549.545 32C556.305 32 561.743 26.65 561.743 20C561.743 13.35 556.305 8 549.545 8ZM549.545 26.3C545.988 26.3 543.142 23.45 543.142 20C543.142 16.5 546.039 13.7 549.545 13.7C553.103 13.7 555.949 16.55 555.949 20C556 23.5 553.103 26.3 549.545 26.3ZM583.901 17.85L579.226 29.15H574.702L570.027 17.85V31.45H563.928V8.5H571.348L576.99 21.2L582.631 8.5H590V31.45H583.901V17.85Z" fill="#896E6E"/>
<g clip-path="url(#clip0_5_761)">
<path d="M734.478 17.2277L742.402 9.26799L750.329 17.2342L754.938 12.6002L742.402 0L729.866 12.597L734.478 17.2277Z" fill="#896E6E"/>
<path d="M721.998 20.501L726.608 15.8687L731.218 20.501L726.608 25.1333L721.998 20.501Z" fill="#896E6E"/>
<path d="M734.478 23.7718L742.402 31.7348L750.329 23.7686L754.941 28.3961L754.938 28.3993L742.402 40.9995L729.866 28.4058L729.86 28.3993L734.478 23.7718Z" fill="#896E6E"/>
<path d="M753.578 20.502L758.188 15.8696L762.798 20.502L758.188 25.1343L753.578 20.502Z" fill="#896E6E"/>
<path d="M747.078 20.4989L742.402 15.7969L738.944 19.2716L738.545 19.6699L737.726 20.4924L737.72 20.4989L737.726 20.5086L742.402 25.2041L747.078 20.5021L747.081 20.4989H747.078Z" fill="#896E6E"/>
<path d="M769.99 9.93457H780.019C782.506 9.93457 784.388 10.5822 785.665 11.8775C786.145 12.356 786.524 12.9277 786.779 13.5578C787.033 14.188 787.157 14.8635 787.144 15.5433V15.6048C787.152 16.1617 787.075 16.7167 786.915 17.2499C786.772 17.7089 786.565 18.1451 786.299 18.5452C786.052 18.9225 785.752 19.2627 785.41 19.5555C785.075 19.8449 784.709 20.0949 784.318 20.3003C785.446 20.6953 786.461 21.3625 787.273 22.2433C787.99 23.0637 788.349 24.1971 788.349 25.6435V25.705C788.369 26.6084 788.174 27.5035 787.779 28.3151C787.396 29.0629 786.834 29.7038 786.145 30.1804C785.365 30.7056 784.497 31.0841 783.583 31.2976C782.497 31.5564 781.383 31.6815 780.267 31.67H769.99V9.93457ZM779.013 18.7233C779.881 18.7654 780.744 18.5778 781.517 18.1793C781.819 18.0024 782.065 17.7442 782.228 17.434C782.39 17.1238 782.464 16.774 782.439 16.4241V16.3626C782.455 16.0402 782.39 15.719 782.249 15.4287C782.109 15.1383 781.898 14.8882 781.636 14.7013C781.101 14.3192 780.329 14.1282 779.319 14.1282H774.627V18.7233H779.013ZM780.28 27.4829C781.144 27.5315 782.005 27.3328 782.761 26.9097C783.056 26.7194 783.294 26.4532 783.452 26.1388C783.609 25.8245 783.68 25.4734 783.657 25.1222V25.0606C783.669 24.7268 783.599 24.3952 783.453 24.0948C783.308 23.7945 783.091 23.5346 782.822 23.3379C782.268 22.9061 781.372 22.6902 780.135 22.6902H774.627V27.4829H780.28Z" fill="#896E6E"/>
<path d="M794.324 9.93457H799.083V31.6765H794.324V9.93457Z" fill="#896E6E"/>
<path d="M806.286 9.93457H810.675L820.819 23.3152V9.93457H825.518V31.6765H821.467L810.991 17.8554V31.6765H806.286V9.93457Z" fill="#896E6E"/>
<path d="M839.929 9.7793H844.312L853.583 31.6766H848.614L846.635 26.7998H837.486L835.508 31.6766H830.655L839.929 9.7793ZM844.937 22.577L842.056 15.524L839.188 22.577H844.937Z" fill="#896E6E"/>
<path d="M858.729 9.93457H863.118L873.257 23.3152V9.93457H877.955V31.6765H873.904L863.428 17.8554V31.6765H858.729V9.93457Z" fill="#896E6E"/>
<path d="M895.086 32.0589C893.569 32.0719 892.065 31.7768 890.665 31.191C889.346 30.644 888.15 29.8372 887.147 28.8183C886.143 27.7995 885.353 26.5891 884.822 25.2585C884.262 23.8667 883.979 22.3783 883.988 20.8771V20.8156C883.963 17.8565 885.096 15.006 887.143 12.8785C888.15 11.8393 889.355 11.0153 890.687 10.4563C892.136 9.85317 893.692 9.55239 895.26 9.57221C896.188 9.56525 897.114 9.64876 898.025 9.82156C898.805 9.96976 899.567 10.1987 900.3 10.5048C900.965 10.7861 901.597 11.1402 902.185 11.5605C902.759 11.9705 903.298 12.4276 903.797 12.9271L900.771 16.4374C899.997 15.7206 899.13 15.1137 898.193 14.6337C897.272 14.1912 896.261 13.9695 895.241 13.986C894.391 13.9769 893.55 14.1495 892.772 14.4923C891.994 14.8351 891.298 15.3403 890.729 15.9743C890.165 16.6067 889.724 17.3392 889.427 18.1342C889.117 18.9744 888.961 19.8643 888.966 20.7605V20.822C888.963 21.717 889.12 22.6053 889.427 23.445C889.72 24.2429 890.157 24.9796 890.716 25.6179C891.28 26.2598 891.975 26.7724 892.754 27.1211C893.532 27.4697 894.376 27.6462 895.228 27.6386C896.313 27.673 897.39 27.4383 898.363 26.9554C899.29 26.4478 900.147 25.8207 900.912 25.0901L903.942 28.1665C903.407 28.7498 902.828 29.2911 902.211 29.7856C901.605 30.2673 900.947 30.679 900.249 31.0129C899.505 31.3647 898.721 31.6246 897.916 31.7869C896.984 31.9745 896.036 32.0657 895.086 32.0589Z" fill="#896E6E"/>
<path d="M909.558 9.93457H925.842V14.1897H914.241V18.6002H924.456V22.8554H914.257V27.4213H926.003V31.6765H909.568L909.558 9.93457Z" fill="#896E6E"/>
</g>
<g clip-path="url(#clip1_5_761)">
<path d="M1073.14 6.53223H1089.77C1089.76 6.74813 1089.68 6.95606 1089.55 7.12902C1088.99 8.0767 1088.48 9.06307 1087.93 10.0107C1087.14 11.3715 1086.41 12.7571 1085.62 14.1123C1085.11 15.0876 1084.54 16.0325 1084.01 16.9913C1080.78 16.9913 1077.54 16.9913 1074.31 16.9913C1074.14 16.9913 1073.97 16.9996 1073.81 17.0092C1073.66 17.3739 1073.43 17.6931 1073.24 18.0357C1073 18.428 1072.8 18.8466 1072.55 19.2389C1072.3 19.7666 1071.94 20.2391 1071.68 20.7654C1071.15 21.6565 1070.65 22.5613 1070.12 23.462C1069.58 24.383 1069.04 25.3169 1068.52 26.2637C1068.3 26.5992 1068.1 26.9455 1067.91 27.3011C1066.82 29.1689 1065.76 31.0532 1064.66 32.9195C1064.57 33.1202 1064.45 33.3063 1064.3 33.4721C1062.43 33.4597 1060.55 33.4721 1058.68 33.4721C1058.45 33.4764 1058.22 33.508 1058 33.5661C1058 33.0577 1058.35 32.6502 1058.58 32.2233C1058.86 31.65 1059.24 31.1181 1059.52 30.5434C1061.76 26.6035 1063.98 22.6497 1066.22 18.7071C1066.73 17.8505 1067.16 16.9761 1067.67 16.1362C1068.31 15.031 1068.9 13.9009 1069.56 12.8082C1069.78 12.3509 1070.06 11.9324 1070.29 11.4862C1071.12 10.0453 1071.93 8.59613 1072.75 7.15527C1072.85 6.93024 1072.98 6.72036 1073.14 6.53223Z" fill="#896E6E"/>
<path d="M1092.41 12.333C1093.52 10.4335 1094.59 8.51329 1095.71 6.62207H1101.72C1101.81 6.62641 1101.89 6.63984 1101.98 6.66213C1101.78 6.95915 1101.61 7.27412 1101.43 7.58357C1099.99 10.1356 1098.54 12.689 1097.1 15.2438C1096.49 16.284 1095.93 17.3477 1095.32 18.3825L1095.26 18.4032L1095.25 18.533C1092.42 23.5063 1089.61 28.4833 1086.8 33.4639C1081.28 33.4694 1075.77 33.4694 1070.25 33.4639C1070.57 32.8201 1070.94 32.2054 1071.29 31.5796C1072.86 28.7448 1074.47 25.9349 1076.02 23.1002C1079.41 23.0946 1082.8 23.0946 1086.18 23.1002C1088.28 19.5222 1090.33 15.9166 1092.4 12.333H1092.41Z" fill="#896E6E"/>
<path d="M1154.41 6.54883V33.7913H1159.22V14.6345L1168 27.2514L1176.7 14.3348V33.7913H1181.65V6.54883H1176.33L1168.03 19.1243L1159.65 6.54883H1154.41Z" fill="#896E6E"/>
<path d="M1131.92 13.5742H1135.06V34.0199H1131.92V13.5742Z" fill="#896E6E"/>
<path d="M1131.65 6H1135.33V9.43017H1131.65V6Z" fill="#896E6E"/>
<path d="M1141.07 7.71582H1144.35V13.5746H1150.82V16.4301H1144.35V28.5759C1144.34 29.0439 1144.45 29.5062 1144.67 29.9228C1145.23 30.9589 1146.74 32.1884 1150.82 30.7517V33.3986C1150.82 33.3986 1147.09 35.4708 1143.72 33.5837C1143.72 33.5837 1142.04 32.8847 1141.33 30.5251C1141.15 29.8931 1141.06 29.2385 1141.07 28.5814V16.3845L1138.3 16.4301V13.5746H1141.09L1141.07 7.71582Z" fill="#896E6E"/>
<path d="M1186.72 6.54883V33.975H1207.6V29.5543H1191.81V22.2782H1205.72V17.9266H1191.79V10.9971H1207.44V6.54883H1186.72Z" fill="#896E6E"/>
<path d="M1209.56 6.54883H1215.51L1222.34 16.1776L1229.11 6.54883H1235.06L1225.34 19.9242L1235.66 33.9515H1229.4L1222.36 23.7066L1214.98 33.975H1209.03L1219.2 20.0457L1209.56 6.54883Z" fill="#896E6E"/>
<path d="M1122.29 19.7454C1122.29 19.7454 1126.89 18.0421 1126.61 13.1379C1126.61 13.1379 1126.57 8.42156 1121.16 6.9655C1120.26 6.72893 1119.34 6.61184 1118.4 6.61737H1105.43L1105.46 33.8598H1119.43C1119.43 33.8598 1127.61 33.6871 1128.18 26.5381C1128.18 26.5381 1128.77 21.5413 1122.29 19.7454ZM1108.78 9.43003H1117.06C1123.56 9.40793 1123.37 13.8977 1123.37 13.8977C1123.47 19.0201 1117.51 18.9165 1117.51 18.9165H1108.78V9.43003ZM1118.92 30.9809H1108.78V21.4957H1118.47C1124.97 21.4722 1124.78 25.962 1124.78 25.962C1124.88 31.0845 1118.92 30.9809 1118.92 30.9809Z" fill="#896E6E"/>
</g>
<defs>
<clipPath id="clip0_5_761">
<rect width="204" height="41" fill="white" transform="translate(722)"/>
</clipPath>
<clipPath id="clip1_5_761">
<rect width="177.662" height="28.3766" fill="white" transform="translate(1058 6)"/>
</clipPath>
</defs>
</svg>
